<svg xmlns="http://www.w3.org/2000/svg" viewBox="0 0 250 50.48"><defs><style>.cls-1{fill:#982f46;}.cls-2{fill:none;stroke:#434244;stroke-width:2px;}.cls-3{fill:#434244;}</style></defs><title>Logo</title><g id="Logo_Movil_UPeU" data-name="Logo Movil UPeU"><path class="cls-1" d="M120.47,8.52h-7.61V30.46c0,4.2-1.82,6-6.11,6s-6.15-1.83-6.15-6V8.52H92.94v22c0,8.63,4.79,12.88,13.81,12.88s13.72-4.25,13.72-12.88ZM72.66,26.12c.32-4,1.64-5.63,5.06-5.63,3,0,4.79,1.56,4.88,5.63ZM79.27,43.3a22.45,22.45,0,0,0,9-1.78l-.77-5.72a20.06,20.06,0,0,1-7.38,1.37c-4.74,0-7-1.73-7.34-6.35H88.89a27.54,27.54,0,0,0,.18-3.33c0-8.78-4.33-12.89-11.4-12.89-8.29,0-12.17,5.16-12.17,14,0,9.69,4.24,14.72,13.77,14.72M55.16,20.22c0,4.3-1.64,5.26-5.42,5.26H45.18V15h4.56c4,0,5.42,1.15,5.42,5.26m7.93.05c0-8-3.87-11.75-13.35-11.75H37.48V42.79h7.7V31.64h4.56c9.52,0,13.35-4.15,13.35-11.37M31.91,8.52H24.3V30.46c0,4.2-1.82,6-6.1,6S12,34.61,12,30.46V8.52H4.39v22c0,8.63,4.78,12.88,13.81,12.88s13.71-4.25,13.71-12.88Z"/><line class="cls-2" x1="126.9" y1="8.52" x2="126.9" y2="43.45"/><path class="cls-3" d="M245.39,39.82V29.68h-1.23v6.57l0,1.08,0,0L239,29.68h-1.25V39.82H239V31.94h0l.6.92,4.77,7ZM231.67,27.47l-1.07,1.58h1.06l1.75-1.58Zm2.49,7.28c0,3.1-.75,4-2.73,4s-2.74-.86-2.74-4,.76-3.95,2.74-3.95,2.73.84,2.73,3.95m1.44,0c0-3.7-1.15-5.23-4.17-5.23s-4.2,1.53-4.2,5.23,1.2,5.26,4.2,5.26,4.17-1.53,4.17-5.26m-12.13,5.07h1.42V29.68h-1.42Zm-2.84,0V29.68H219.4v6.57l0,1.08,0,0-5.12-7.67H213V39.82h1.24V33l0-1.09h0l.59.92,4.78,7Zm-10.1-10.14h-1.37v6.48c0,1.75-.78,2.54-2.47,2.54s-2.48-.77-2.48-2.54V29.68h-1.37v6.49c0,2.66,1.39,3.84,3.85,3.84s3.84-1.18,3.84-3.84Zm-17.79,1h0l.31,1.05,1.47,4.45h-3.65l1.5-4.45Zm3,9.12h1.55l-3.73-10.14h-1.65l-3.72,10.14h1.49l.8-2.42H195Zm-9.16,0V29.68h-1.23v6.57l0,1.08,0,0-5.12-7.67H179V39.82h1.24V31.94h0l.59.92,4.77,7ZM172.81,30.7h0l.31,1.05,1.47,4.45H171l1.5-4.45Zm3,9.12h1.55l-3.74-10.14H172l-3.72,10.14h1.48l.81-2.42H175ZM167.2,29.68h-1.37v6.48c0,1.75-.79,2.54-2.47,2.54s-2.48-.77-2.48-2.54V29.68H159.5v6.49c0,2.66,1.39,3.84,3.86,3.84s3.84-1.18,3.84-3.84Zm-11.12,3c0,1.34-.58,1.82-1.87,1.82h-2V30.89h2c1.27,0,1.82.47,1.82,1.74m1.43-.06c0-1.95-1-2.89-3.25-2.89h-3.42V39.82h1.37V35.55h2l2.27,4.27h1.65l-2.64-4.53c1.28-.21,2-1.16,2-2.72m-13.76,6V35.13h4.18V34h-4.18V31h4.88l0-1.27h-6.22V39.82h6.44l.05-1.26ZM139,32.86c0,1.55-.69,2-2.12,2h-2v-4h2c1.47,0,2.12.5,2.12,2m1.41,0c0-2.2-1.05-3.18-3.53-3.18h-3.35V39.82h1.37V36h2c2.51,0,3.53-1.08,3.53-3.16"/><path class="cls-3" d="M243.85,18.52c0,3.77-1.15,4.7-3.58,4.7H237.7V13.93h2.55c2.55,0,3.6,1,3.6,4.59m1.77,0c0-4.37-1.57-6.19-5.35-6.19H236V24.8h4.29c3.58,0,5.32-1.74,5.32-6.28M228.4,13.58h0l.38,1.3,1.8,5.47h-4.49L228,14.88Zm3.71,11.22H234l-4.6-12.47h-2L222.82,24.8h1.83l1-3h5.48ZM220,18.52c0,3.77-1.15,4.7-3.59,4.7h-2.56V13.93h2.55c2.55,0,3.6,1,3.6,4.59m1.77,0c0-4.37-1.57-6.19-5.36-6.19h-4.26V24.8h4.3c3.58,0,5.32-1.74,5.32-6.28M206.92,24.8h1.75V12.33h-1.75Zm-2.57-3.56c0-4.27-6.15-3-6.15-5.71,0-1,.67-1.85,2.54-1.85a8,8,0,0,1,3,.6l.23-1.48a7.77,7.77,0,0,0-3.28-.67c-2.84,0-4.1,1.53-4.1,3.49,0,4.14,6.15,2.91,6.15,5.74,0,1.33-.86,2.13-2.62,2.13a6.21,6.21,0,0,1-3.36-.95l-.27,1.55a7.18,7.18,0,0,0,3.65.94c2.74,0,4.24-1.44,4.24-3.79M192.62,16c0,1.64-.72,2.24-2.31,2.24h-2.45V13.81h2.52c1.56,0,2.24.59,2.24,2.15m1.75-.07c0-2.41-1.27-3.56-4-3.56h-4.21V24.8h1.69V19.55h2.5l2.8,5.25h2l-3.25-5.57c1.57-.26,2.43-1.43,2.43-3.34m-16.92,7.37V19h5.14V17.6h-5.14V13.9h6l0-1.57h-7.64V24.8h7.92l0-1.54Zm-5.52-10.93-3.16,9.56-.38,1.28h0L168,21.89l-3.14-9.56h-1.89l4.43,12.47h1.94l4.43-12.47Zm-13,12.47h1.74V12.33h-1.74Zm-3.49,0V12.33h-1.51v8.08l0,1.33,0,0-6.3-9.43h-1.55V24.8h1.53V16.46l0-1.35,0,0,.73,1.13,5.86,8.58ZM143,12.33h-1.69v8c0,2.16-1,3.12-3,3.12s-3.05-1-3.05-3.12v-8h-1.69v8c0,3.28,1.71,4.72,4.74,4.72S143,23.59,143,20.31Z"/></g></svg>